<svg width="112" height="48" viewBox="0 0 112 48" fill="none" xmlns="http://www.w3.org/2000/svg">
    <g filter="url(#filter0_d_1_276)">
        <path
            d="M5.48 32C5.08 32 4.88 31.8 4.88 31.4V5.36C4.88 4.992 5.016 4.672 5.288 4.4L9.272 0.391998C9.544 0.135998 9.864 0.00799751 10.232 0.00799751H15.728C16.096 0.00799751 16.416 0.135998 16.688 0.391998L20.72 4.448H21.848L25.88 0.391998C26.152 0.135998 26.472 0.00799751 26.84 0.00799751H32.312C32.696 0.00799751 33.016 0.135998 33.272 0.391998L37.28 4.4C37.552 4.672 37.688 4.992 37.688 5.36V31.4C37.688 31.8 37.488 32 37.088 32H30.272C29.872 32 29.672 31.8 29.672 31.4V6.392H25.28V31.4C25.28 31.8 25.08 32 24.68 32H17.888C17.488 32 17.288 31.8 17.288 31.4V6.392H12.872V31.4C12.872 31.8 12.672 32 12.272 32H5.48ZM44.0581 32C43.6581 32 43.4581 31.8 43.4581 31.4V0.607997C43.4581 0.207997 43.6581 0.00799751 44.0581 0.00799751H60.7861C61.1861 0.00799751 61.3861 0.207997 61.3861 0.607997V5.792C61.3861 6.192 61.1861 6.392 60.7861 6.392H51.4501V13.208H59.9701C60.3701 13.208 60.5701 13.408 60.5701 13.808V18.2C60.5701 18.6 60.3701 18.8 59.9701 18.8H51.4501V25.592H60.7861C61.1861 25.592 61.3861 25.792 61.3861 26.192V31.4C61.3861 31.8 61.1861 32 60.7861 32H44.0581ZM67.73 32C67.33 32 67.13 31.8 67.13 31.4V0.607997C67.13 0.207997 67.33 0.00799751 67.73 0.00799751H74.522C74.922 0.00799751 75.122 0.207997 75.122 0.607997V25.592H81.17C81.57 25.592 81.77 25.792 81.77 26.192V31.4C81.77 31.8 81.57 32 81.17 32H67.73ZM91.7667 32C91.3987 32 91.0787 31.864 90.8067 31.592L86.0067 26.792C85.7347 26.536 85.5987 26.216 85.5987 25.832V6.152C85.5987 5.784 85.7347 5.464 86.0067 5.192L90.8067 0.391998C91.0787 0.135998 91.3987 0.00799751 91.7667 0.00799751H101.199C101.583 0.00799751 101.903 0.135998 102.159 0.391998L106.959 5.192C107.231 5.464 107.367 5.784 107.367 6.152V25.832C107.367 26.216 107.231 26.536 106.959 26.792L102.159 31.592C101.903 31.864 101.583 32 101.199 32H91.7667ZM94.5987 25.592H98.3667C99.0387 25.592 99.3747 25.144 99.3747 24.248V7.76C99.3747 6.848 99.0387 6.392 98.3667 6.392H94.5987C93.9427 6.392 93.6147 6.848 93.6147 7.76V24.248C93.6147 25.144 93.9427 25.592 94.5987 25.592Z"
            fill="black" />
    </g>
    <defs>
        <filter id="filter0_d_1_276" x="0.880005" y="0.00799561" width="110.487" height="47.992"
            filterUnits="userSpaceOnUse" color-interpolation-filters="sRGB">
            <feFlood flood-opacity="0" result="BackgroundImageFix" />
            <feColorMatrix in="SourceAlpha" type="matrix"
                values="0 0 0 0 0 0 0 0 0 0 0 0 0 0 0 0 0 0 127 0" result="hardAlpha" />
            <feOffset dy="12" />
            <feGaussianBlur stdDeviation="2" />
            <feComposite in2="hardAlpha" operator="out" />
            <feColorMatrix type="matrix" values="0 0 0 0 0 0 0 0 0 0 0 0 0 0 0 0 0 0 0.25 0" />
            <feBlend mode="normal" in2="BackgroundImageFix" result="effect1_dropShadow_1_276" />
            <feBlend mode="normal" in="SourceGraphic" in2="effect1_dropShadow_1_276" result="shape" />
        </filter>
    </defs>
</svg>