<svg width="28" height="28" viewBox="0 0 28 28" fill="none" xmlns="http://www.w3.org/2000/svg">
    <g clip-path="url(#clip0_88_6)">
        <mask id="mask0_88_6" style="mask-type:luminance" maskUnits="userSpaceOnUse" x="0" y="0"
            width="28" height="28">
            <path
                d="M14.0001 28C21.732 28 28.0001 21.732 28.0001 14C28.0001 6.26801 21.732 0 14.0001 0C6.26807 0 5.34058e-05 6.26801 5.34058e-05 14C5.34058e-05 21.732 6.26807 28 14.0001 28Z"
                fill="white" />
        </mask>
        <g mask="url(#mask0_88_6)">
            <path
                d="M14.0001 0H28.0001V3.5L26.2501 5.25L28.0001 7V10.5L26.2501 12.25L28.0001 14V17.5L26.2501 19.25L28.0001 21V24.5L14.0001 26.25L5.34058e-05 24.5V21L1.75005 19.25L5.34058e-05 17.5V14L14.0001 0Z"
                fill="#EEEEEE" />
            <path
                d="M12.2501 3.5H28.0001V7H12.2501V3.5ZM12.2501 10.5H28.0001V14H14.0001L12.2501 10.5ZM5.34058e-05 17.5H28.0001V21H5.34058e-05V17.5ZM5.34058e-05 24.5H28.0001V28H5.34058e-05V24.5Z"
                fill="#D80027" />
            <path d="M5.34058e-05 0H14.0001V14H5.34058e-05V0Z" fill="#0052B4" />
            <path
                d="M10.2266 13.2891L13.3438 11.0469H9.51568L12.6329 13.2891L11.4297 9.625L10.2266 13.2891ZM5.79693 13.2891L8.91412 11.0469H5.08599L8.20318 13.2891L7.00005 9.625L5.79693 13.2891ZM1.36724 13.2891L4.48443 11.0469H0.656303L3.77349 13.2891L2.57037 9.625L1.36724 13.2891ZM10.2266 8.85937L13.3438 6.61719H9.51568L12.6329 8.85937L11.4297 5.19531L10.2266 8.85937ZM5.79693 8.85937L8.91412 6.61719H5.08599L8.20318 8.85937L7.00005 5.19531L5.79693 8.85937ZM1.36724 8.85937L4.48443 6.61719H0.656303L3.77349 8.85937L2.57037 5.19531L1.36724 8.85937ZM10.2266 4.375L13.3438 2.13281H9.51568L12.6329 4.375L11.4297 0.710938L10.2266 4.375ZM5.79693 4.375L8.91412 2.13281H5.08599L8.20318 4.375L7.00005 0.710938L5.79693 4.375ZM1.36724 4.375L4.48443 2.13281H0.656303L3.77349 4.375L2.57037 0.710938L1.36724 4.375Z"
                fill="#EEEEEE" />
        </g>
        <g clip-path="url(#clip1_88_6)">
            <mask id="mask1_88_6" style="mask-type:luminance" maskUnits="userSpaceOnUse" x="0" y="0"
                width="28" height="28">
                <path
                    d="M14.0001 28C21.732 28 28.0001 21.732 28.0001 14C28.0001 6.26801 21.732 0 14.0001 0C6.26807 0 5.34058e-05 6.26801 5.34058e-05 14C5.34058e-05 21.732 6.26807 28 14.0001 28Z"
                    fill="white" />
            </mask>
            <g mask="url(#mask1_88_6)">
                <path
                    d="M14.0001 0H28.0001V3.5L26.2501 5.25L28.0001 7V10.5L26.2501 12.25L28.0001 14V17.5L26.2501 19.25L28.0001 21V24.5L14.0001 26.25L5.34058e-05 24.5V21L1.75005 19.25L5.34058e-05 17.5V14L14.0001 0Z"
                    fill="#EEEEEE" />
                <path
                    d="M12.2501 3.5H28.0001V7H12.2501V3.5ZM12.2501 10.5H28.0001V14H14.0001L12.2501 10.5ZM5.34058e-05 17.5H28.0001V21H5.34058e-05V17.5ZM5.34058e-05 24.5H28.0001V28H5.34058e-05V24.5Z"
                    fill="#D80027" />
                <path d="M5.34058e-05 0H14.0001V14H5.34058e-05V0Z" fill="#0052B4" />
                <path
                    d="M10.2266 13.2891L13.3438 11.0469H9.51568L12.6329 13.2891L11.4297 9.625L10.2266 13.2891ZM5.79693 13.2891L8.91412 11.0469H5.08599L8.20318 13.2891L7.00005 9.625L5.79693 13.2891ZM1.36724 13.2891L4.48443 11.0469H0.656303L3.77349 13.2891L2.57037 9.625L1.36724 13.2891ZM10.2266 8.85937L13.3438 6.61719H9.51568L12.6329 8.85937L11.4297 5.19531L10.2266 8.85937ZM5.79693 8.85937L8.91412 6.61719H5.08599L8.20318 8.85937L7.00005 5.19531L5.79693 8.85937ZM1.36724 8.85937L4.48443 6.61719H0.656303L3.77349 8.85937L2.57037 5.19531L1.36724 8.85937ZM10.2266 4.375L13.3438 2.13281H9.51568L12.6329 4.375L11.4297 0.710938L10.2266 4.375ZM5.79693 4.375L8.91412 2.13281H5.08599L8.20318 4.375L7.00005 0.710938L5.79693 4.375ZM1.36724 4.375L4.48443 2.13281H0.656303L3.77349 4.375L2.57037 0.710938L1.36724 4.375Z"
                    fill="#EEEEEE" />
            </g>
            <g clip-path="url(#clip2_88_6)">
                <mask id="mask2_88_6" style="mask-type:luminance" maskUnits="userSpaceOnUse" x="0"
                    y="0" width="28" height="28">
                    <path
                        d="M14.0001 28C21.732 28 28.0001 21.732 28.0001 14C28.0001 6.26801 21.732 0 14.0001 0C6.26807 0 5.34058e-05 6.26801 5.34058e-05 14C5.34058e-05 21.732 6.26807 28 14.0001 28Z"
                        fill="white" />
                </mask>
                <g mask="url(#mask2_88_6)">
                    <path
                        d="M14.0001 0H28.0001V3.5L26.2501 5.25L28.0001 7V10.5L26.2501 12.25L28.0001 14V17.5L26.2501 19.25L28.0001 21V24.5L14.0001 26.25L5.34058e-05 24.5V21L1.75005 19.25L5.34058e-05 17.5V14L14.0001 0Z"
                        fill="#EEEEEE" />
                    <path
                        d="M12.2501 3.5H28.0001V7H12.2501V3.5ZM12.2501 10.5H28.0001V14H14.0001L12.2501 10.5ZM5.34058e-05 17.5H28.0001V21H5.34058e-05V17.5ZM5.34058e-05 24.5H28.0001V28H5.34058e-05V24.5Z"
                        fill="#D80027" />
                    <path d="M5.34058e-05 0H14.0001V14H5.34058e-05V0Z" fill="#0052B4" />
                    <path
                        d="M10.2266 13.2891L13.3438 11.0469H9.51568L12.6329 13.2891L11.4297 9.625L10.2266 13.2891ZM5.79693 13.2891L8.91412 11.0469H5.08599L8.20318 13.2891L7.00005 9.625L5.79693 13.2891ZM1.36724 13.2891L4.48443 11.0469H0.656303L3.77349 13.2891L2.57037 9.625L1.36724 13.2891ZM10.2266 8.85937L13.3438 6.61719H9.51568L12.6329 8.85937L11.4297 5.19531L10.2266 8.85937ZM5.79693 8.85937L8.91412 6.61719H5.08599L8.20318 8.85937L7.00005 5.19531L5.79693 8.85937ZM1.36724 8.85937L4.48443 6.61719H0.656303L3.77349 8.85937L2.57037 5.19531L1.36724 8.85937ZM10.2266 4.375L13.3438 2.13281H9.51568L12.6329 4.375L11.4297 0.710938L10.2266 4.375ZM5.79693 4.375L8.91412 2.13281H5.08599L8.20318 4.375L7.00005 0.710938L5.79693 4.375ZM1.36724 4.375L4.48443 2.13281H0.656303L3.77349 4.375L2.57037 0.710938L1.36724 4.375Z"
                        fill="#EEEEEE" />
                </g>
                <g clip-path="url(#clip3_88_6)">
                    <mask id="mask3_88_6" style="mask-type:luminance" maskUnits="userSpaceOnUse"
                        x="0" y="0" width="28" height="28">
                        <path
                            d="M14.0001 28C21.732 28 28.0001 21.732 28.0001 14C28.0001 6.26801 21.732 0 14.0001 0C6.26807 0 5.34058e-05 6.26801 5.34058e-05 14C5.34058e-05 21.732 6.26807 28 14.0001 28Z"
                            fill="white" />
                    </mask>
                    <g mask="url(#mask3_88_6)">
                        <path
                            d="M14.0001 0H28.0001V3.5L26.2501 5.25L28.0001 7V10.5L26.2501 12.25L28.0001 14V17.5L26.2501 19.25L28.0001 21V24.5L14.0001 26.25L5.34058e-05 24.5V21L1.75005 19.25L5.34058e-05 17.5V14L14.0001 0Z"
                            fill="#EEEEEE" />
                        <path
                            d="M12.2501 3.5H28.0001V7H12.2501V3.5ZM12.2501 10.5H28.0001V14H14.0001L12.2501 10.5ZM5.34058e-05 17.5H28.0001V21H5.34058e-05V17.5ZM5.34058e-05 24.5H28.0001V28H5.34058e-05V24.5Z"
                            fill="#D80027" />
                        <path d="M5.34058e-05 0H14.0001V14H5.34058e-05V0Z" fill="#0052B4" />
                        <path
                            d="M10.2266 13.2891L13.3438 11.0469H9.51568L12.6329 13.2891L11.4297 9.625L10.2266 13.2891ZM5.79693 13.2891L8.91412 11.0469H5.08599L8.20318 13.2891L7.00005 9.625L5.79693 13.2891ZM1.36724 13.2891L4.48443 11.0469H0.656303L3.77349 13.2891L2.57037 9.625L1.36724 13.2891ZM10.2266 8.85937L13.3438 6.61719H9.51568L12.6329 8.85937L11.4297 5.19531L10.2266 8.85937ZM5.79693 8.85937L8.91412 6.61719H5.08599L8.20318 8.85937L7.00005 5.19531L5.79693 8.85937ZM1.36724 8.85937L4.48443 6.61719H0.656303L3.77349 8.85937L2.57037 5.19531L1.36724 8.85937ZM10.2266 4.375L13.3438 2.13281H9.51568L12.6329 4.375L11.4297 0.710938L10.2266 4.375ZM5.79693 4.375L8.91412 2.13281H5.08599L8.20318 4.375L7.00005 0.710938L5.79693 4.375ZM1.36724 4.375L4.48443 2.13281H0.656303L3.77349 4.375L2.57037 0.710938L1.36724 4.375Z"
                            fill="#EEEEEE" />
                    </g>
                </g>
            </g>
        </g>
    </g>
    <defs>
        <clipPath id="clip0_88_6">
            <rect width="28" height="28" fill="white" />
        </clipPath>
        <clipPath id="clip1_88_6">
            <rect width="28" height="28" fill="white" />
        </clipPath>
        <clipPath id="clip2_88_6">
            <rect width="28" height="28" fill="white" />
        </clipPath>
        <clipPath id="clip3_88_6">
            <rect width="28" height="28" fill="white" />
        </clipPath>
    </defs>
</svg>